<svg width="20" height="20" viewBox="0 0 20 20" fill="#000000" xmlns="http://www.w3.org/2000/svg">
<path d="M5.01085 18.6687C6.47917 19.5155 8.18281 20 9.9996 20C15.5225 20 20 15.5229 20 10C20 4.47716 15.5228 0 10 0C4.47715 0 0 4.47716 0 10C0 11.8168 0.484493 13.5205 1.33133 14.9888L1.33461 14.9945C1.41609 15.1358 1.45718 15.207 1.47579 15.2743C1.49334 15.3378 1.49824 15.3949 1.49375 15.4607C1.48892 15.5313 1.46511 15.6045 1.41631 15.7509L0.562066 18.3137L0.560991 18.317C0.380753 18.8577 0.290634 19.1281 0.354871 19.3082C0.410881 19.4653 0.535206 19.5893 0.692274 19.6453C0.872017 19.7094 1.14116 19.6197 1.6795 19.4402L1.6862 19.4377L4.24894 18.5835C4.39486 18.5349 4.46904 18.5102 4.53955 18.5054C4.60528 18.5009 4.66197 18.5068 4.72548 18.5244C4.79298 18.543 4.86426 18.5841 5.00626 18.666L5.01085 18.6687Z" fill="#8E8E93"/>
</svg>
